<svg id="Capa_1" data-name="Capa 1" xmlns="http://www.w3.org/2000/svg" viewBox="0 0 510.24 510.24"><defs><style>.cls-1{fill:#73a7b7;}.cls-2{fill:#434955;}.cls-3{fill:#c3b7b1;}.cls-4{fill:#50a7c0;}</style></defs><title>COLORES</title><path class="cls-1" d="M240.28,28.54h0A221.68,221.68,0,0,1,462,250.23v0a0,0,0,0,1,0,0H240.28a0,0,0,0,1,0,0V28.54A0,0,0,0,1,240.28,28.54Z"/><path class="cls-2" d="M240.28,267.28H462a0,0,0,0,1,0,0v0A221.68,221.68,0,0,1,240.28,489h0a0,0,0,0,1,0,0V267.28A0,0,0,0,1,240.28,267.28Z"/><path class="cls-3" d="M174.35,142h0a45.47,45.47,0,0,1,45.47,45.47V488.78a0,0,0,0,1,0,0H128.87a0,0,0,0,1,0,0V187.52A45.47,45.47,0,0,1,174.35,142Z"/><circle class="cls-4" cx="173.78" cy="74.41" r="41.21"/></svg>