<svg id="Capa_1" data-name="Capa 1" xmlns="http://www.w3.org/2000/svg" viewBox="0 0 510.24 510.24"><defs><style>.cls-1{fill:#1b221f;}.cls-2{fill:#545c64;}.cls-3{fill:#50a7c0;}.cls-4{fill:#c3b7b1;}</style></defs><title>COLORES</title><path class="cls-1" d="M278.91,191.08c.09.94.14,1.89.14,2.85,0,16.54-13.74,29.94-30.7,29.94-15.89,0-29-11.78-30.53-26.88V477.56h61.39V191.08Z"/><circle class="cls-2" cx="247.98" cy="177.67" r="28.42"/><circle class="cls-3" cx="246.84" cy="109.46" r="28.42"/><path class="cls-4" d="M147.93,132.2h0a45.47,45.47,0,0,1,45.47,45.47V478.93a0,0,0,0,1,0,0H102.46a0,0,0,0,1,0,0V177.67A45.47,45.47,0,0,1,147.93,132.2Z"/><circle class="cls-3" cx="147.37" cy="64.55" r="41.21"/></svg>