<svg id="Capa_1" data-name="Capa 1" xmlns="http://www.w3.org/2000/svg" viewBox="0 0 510.24 510.24"><defs><style>.cls-1{fill:#50a7c0;}.cls-2{fill:#c3b7b1;}.cls-3{fill:#434955;}</style></defs><title>COLORES</title><path class="cls-1" d="M134.8,14.59h0a41.07,41.07,0,0,1,41.07,41.07V485.31a6.39,6.39,0,0,1-6.39,6.39H100.13a6.39,6.39,0,0,1-6.39-6.39V55.65A41.07,41.07,0,0,1,134.8,14.59Z"/><path class="cls-2" d="M195.35,15.37h0A221.68,221.68,0,0,1,417,237.05v0a0,0,0,0,1,0,0H195.35a0,0,0,0,1,0,0V15.37A0,0,0,0,1,195.35,15.37Z"/><path class="cls-3" d="M307.33,264.34h0a112,112,0,0,1,112,112V496.25a0,0,0,0,1,0,0h-224a0,0,0,0,1,0,0V376.32A112,112,0,0,1,307.33,264.34Z" transform="translate(614.65 760.59) rotate(180)"/></svg>