<svg id="Capa_1" data-name="Capa 1" xmlns="http://www.w3.org/2000/svg" viewBox="0 0 510.24 510.24"><defs><style>.cls-1{fill:#c3b7b1;}.cls-2{fill:#50a7c0;}.cls-3{fill:#434955;}</style></defs><title>COLORES</title><path class="cls-1" d="M68.18,273.08h79.29A101.75,101.75,0,0,1,249.21,374.82v79.29a0,0,0,0,1,0,0H169.93A101.75,101.75,0,0,1,68.18,352.36V273.08a0,0,0,0,1,0,0Z" transform="translate(522.29 204.9) rotate(90)"/><path class="cls-1" d="M262.57,75.9h79.29A101.75,101.75,0,0,1,443.6,177.65v79.29a0,0,0,0,1,0,0H364.31A101.75,101.75,0,0,1,262.57,155.19V75.9a0,0,0,0,1,0,0Z" transform="translate(519.5 -186.67) rotate(90)"/><rect class="cls-2" x="73.75" y="87.86" width="174.86" height="169.45"/><path class="cls-3" d="M262.46,272.93H443a0,0,0,0,1,0,0v3.93A180.54,180.54,0,0,1,262.46,457.4h0a0,0,0,0,1,0,0V272.93A0,0,0,0,1,262.46,272.93Z"/></svg>